<?xml version="1.0" encoding="UTF-8"?>
<svg xmlns="http://www.w3.org/2000/svg" viewBox="0 0 465.94 202.2">
    <defs>
        <style>.d,.e{fill:#000;}.e{fill-rule:evenodd;}</style>
    </defs>
    <g id="a"/>
    <g id="b">
        <g id="c">
            <g>
                <g>
                    <path class="d"
                          d="M33.78,69.63h22.88l-.61-7.83c-.15-1.69,.61-2.3,2.15-2.3h8.6c1.54,0,2.3,.77,2.3,2.3v27.18c0,1.54-.77,2.3-2.3,2.3h-8.6c-1.54,0-2.3-.61-2.15-2.3l.46-7.37h-22.72v35.31h35.16l-.61-10.9c-.15-1.69,.61-2.3,2.15-2.3h8.6c1.54,0,2.3,.77,2.3,2.3v20.57c0,1.69-.61,2.3-2.3,2.3H8.44c-1.69,0-2.3-.77-2.3-2.3v-7.52c0-1.69,.77-2.3,2.3-2.3h8.14V37.08H8.44c-1.54,0-2.3-.77-2.3-2.3v-7.83c0-1.69,.77-2.3,2.3-2.3H76c1.69,0,2.3,.77,2.3,2.3v20.57c0,1.69-.77,2.3-2.3,2.3h-8.6c-1.54,0-2.3-.61-2.15-2.3l.61-10.59H33.78v32.7Z"/>
                    <path class="d"
                          d="M128.51,110.93l15.97-45.45h-7.83c-1.54,0-2.3-.77-2.3-2.3v-7.98c0-1.69,.77-2.3,2.3-2.3h22.42c2.46,0,3.69,2.3,2.76,4.61l-32.86,85.83c-4.91,12.59-9.37,22.42-26.25,22.42-7.06,0-14.12-2-17.04-3.38-1.54-.77-1.54-1.38-1.07-2.92l2.61-7.52c.46-1.54,1.38-1.84,2.92-1.38,4.15,1.38,7.52,2.46,12.13,2.46,5.99,0,8.6-2,12.44-12.28l3.84-10.13-23.34-65.1h-7.68c-1.54,0-2.3-.77-2.3-2.3v-7.98c0-1.69,.77-2.3,2.3-2.3h20.11c1.54,0,2.46,.61,2.92,2.15l17.96,55.89Z"/>
                    <path class="d"
                          d="M170.27,90.82c0-20.27,11.05-39.61,35.16-39.61s29.94,19.19,29.94,35.77c0,1.38,0,3.38-.15,5.22-.15,1.84-.46,2.46-2.76,2.46h-45.14c.92,13.05,5.07,23.18,21.65,23.18,6.91,0,11.82-1.54,17.35-3.99,1.54-.77,2.46-.31,3.07,1.23l2.92,7.06c.61,1.54,0,2.3-1.38,3.07-5.37,2.92-14.74,5.53-25.33,5.53-25.49,0-35.31-16.58-35.31-39.92Zm48.98-7.52c.15-9.21-2.46-19.19-15.05-19.19-13.36,0-16.58,11.05-16.89,19.19h31.94Z"/>
                </g>
                <path class="e"
                      d="M373.2,91.12c0,1.46-.56,2.77-1.46,3.79h.11c-10.71,20.56-31.21,34.6-56,34.6s-45.28-14.04-56-34.6h.09c-.9-1.01-1.46-2.33-1.46-3.79s.58-2.83,1.5-3.84h-.13c10.71-20.56,31.21-34.6,56-34.6s45.28,14.04,56,34.6h-.15c.92,1.02,1.5,2.36,1.5,3.84h0Zm-57.42-26.96c-9.62,0-17.42,7.8-17.42,17.42s7.8,17.42,17.42,17.42,17.42-7.8,17.42-17.42c0-9.62-7.8-17.42-17.42-17.42Zm42.03,22.57v-.36c-4.09-5.76-9.15-10.65-14.99-14.37,1.06,3,1.67,6.21,1.67,9.58,0,15.86-12.86,28.72-28.72,28.72s-28.72-12.86-28.72-28.72c0-3.33,.6-6.51,1.64-9.48-5.84,3.75-10.9,8.69-14.99,14.49v.37c-1.11,1.05-1.81,2.52-1.81,4.17s.7,3.12,1.81,4.17v.13h-.14c9.52,13.64,24.36,22.57,42.27,22.57s32.75-8.93,42.27-22.57h-.17c1.2-1.05,1.97-2.58,1.97-4.3s-.82-3.34-2.09-4.4h0Z"/>
                <path class="d"
                      d="M377.05,56.02c0-1.54,.61-2.3,2.3-2.3h20.88c1.54,0,2.15,.77,2.46,2.3l1.38,8.9c6.29-9.52,15.51-12.9,24.57-12.9,15.51,0,23.8,8.75,23.8,26.1v39.46h8.91c1.54,0,2.3,.77,2.3,2.3v7.52c0,1.69-.77,2.3-2.3,2.3h-33.47c-1.54,0-2.3-.77-2.3-2.3v-7.52c0-1.69,.77-2.3,2.3-2.3h7.37v-31.78c0-10.9-1.07-18.58-13.2-18.58-9.67,0-17.2,7.52-17.2,15.05v35.31h9.52c1.69,0,2.3,.77,2.3,2.3v7.52c0,1.69-.77,2.3-2.3,2.3h-34.85c-1.54,0-2.3-.77-2.3-2.3v-7.52c0-1.69,.77-2.3,2.3-2.3h8.14v-51.28h-8.29c-1.69,0-2.3-.46-2.3-2.15v-8.14Z"/>
                <g>
                    <path class="d"
                          d="M164.61,149.72c.62,.17,.79,.44,.79,.99v7.61c0,.55-.28,.83-.85,.83h-3.18c-.57,0-.85-.22-.79-.83l.17-3.69c-1.14-.66-3.07-1.32-5.11-1.32-3.52,0-6.07,1.76-6.07,4.85s1.99,4.91,6.64,6.62c4.77,1.76,11.01,3.91,11.01,11.19s-4.88,11.58-13.62,11.58c-3.97,0-7.72-.88-9.54-1.43-.62-.17-.79-.44-.79-.99v-8.77c0-.61,.28-.83,.85-.83h3.18c.57,0,.85,.22,.79,.83l-.23,4.58c.91,.83,3.41,1.82,6.02,1.82,3.63,0,7.04-1.21,7.04-5.57,0-3.91-3.07-5.62-7.49-7.06-5.05-1.65-10.05-3.97-10.05-10.48s4.54-11.14,12.83-11.14c3.58,0,6.87,.77,8.4,1.21Z"/>
                    <path class="d"
                          d="M189.59,148.51c5.9,0,16.74,2.04,16.74,18.47,0,13.73-7.89,20.56-17.94,20.56s-16.46-6.4-16.46-19.02c0-15.55,10.39-20.01,17.65-20.01Zm9.65,19.52c0-8.27-2.61-14.66-10.33-14.66s-10.16,6.23-10.16,13.23,1.19,15.77,10.33,15.77c7.44,0,10.16-6.01,10.16-14.33Z"/>
                    <path class="d"
                          d="M220.41,171.22c0,6.45,.85,11.36,8.8,11.36,7.21,0,9.31-4.41,9.31-11.19v-17.48h-3.01c-.57,0-.85-.28-.85-.83v-2.81c0-.61,.28-.83,.85-.83h11.47c.57,0,.85,.28,.85,.83v2.81c0,.61-.28,.83-.85,.83h-3.01v18.63c0,7.44-2.95,15-14.93,15s-14.99-5.24-14.99-14.39v-19.24h-3.01c-.57,0-.85-.28-.85-.83v-2.81c0-.61,.28-.83,.85-.83h12.37c.57,0,.85,.28,.85,.83v2.81c0,.61-.28,.83-.85,.83h-3.01v17.31Z"/>
                    <path class="d"
                          d="M258.22,186.88c-.62,0-.85-.28-.85-.83v-2.7c0-.61,.23-.83,.85-.83h4.65v-28.67h-7.66l.28,4.3c.06,.61-.23,.83-.79,.83h-3.46c-.57,0-.85-.28-.85-.83v-7.88c0-.55,.28-.83,.85-.83h29.69c.57,0,.85,.28,.85,.83v7.88c0,.55-.28,.83-.85,.83h-3.46c-.57,0-.85-.22-.79-.83l.28-4.3h-7.66v28.67h4.71c.57,0,.85,.28,.85,.83v2.7c0,.61-.28,.83-.85,.83h-15.78Z"/>
                    <path class="d"
                          d="M295.4,165.27h17.2v-11.36h-3.01c-.57,0-.85-.28-.85-.83v-2.81c0-.61,.28-.83,.85-.83h12.37c.57,0,.85,.28,.85,.83v2.81c0,.61-.28,.83-.85,.83h-3.01v28.61h3.01c.57,0,.85,.28,.85,.83v2.7c0,.61-.28,.83-.85,.83h-12.37c-.57,0-.85-.28-.85-.83v-2.7c0-.61,.28-.83,.85-.83h3.01v-12.51h-17.2v12.51h3.01c.57,0,.85,.28,.85,.83v2.7c0,.61-.28,.83-.85,.83h-12.37c-.57,0-.85-.28-.85-.83v-2.7c0-.61,.28-.83,.85-.83h3.01v-28.61h-3.01c-.57,0-.85-.28-.85-.83v-2.81c0-.61,.28-.83,.85-.83h12.37c.57,0,.85,.28,.85,.83v2.81c0,.61-.28,.83-.85,.83h-3.01v11.36Z"/>
                    <path class="d"
                          d="M327.36,183.35c0-.55,.28-.83,.85-.83h2.95v-28.67h-2.95c-.57,0-.85-.28-.85-.83v-2.76c0-.55,.23-.83,.85-.83,3.63-.17,8.57-.33,11.86-.33,9.76,0,15.1,3.47,15.1,10.75s-5.22,12.07-13.74,12.07c-1.36,0-2.95-.06-3.92-.17v10.75h4.71c.57,0,.85,.28,.85,.83v2.7c0,.61-.28,.83-.85,.83h-14.02c-.57,0-.85-.22-.85-.83v-2.7Zm10.16-15.82c.51,.06,1.19,.06,2.61,.06,4.94,0,8.52-1.76,8.52-7.33s-4.48-6.56-9.08-6.56h-2.04v13.84Z"/>
                    <path class="d"
                          d="M377.26,148.51c5.9,0,16.75,2.04,16.75,18.47,0,13.73-7.89,20.56-17.94,20.56s-16.46-6.4-16.46-19.02c0-15.55,10.39-20.01,17.65-20.01Zm9.65,19.52c0-8.27-2.61-14.66-10.33-14.66s-10.16,6.23-10.16,13.23,1.19,15.77,10.33,15.77c7.44,0,10.16-6.01,10.16-14.33Z"/>
                    <path class="d"
                          d="M398.72,183.35c0-.55,.28-.83,.85-.83h2.95v-28.67h-2.95c-.57,0-.85-.28-.85-.83v-2.76c0-.61,.23-.83,.85-.83,3.63-.17,8.8-.33,12.09-.33,9.76,0,14.76,3.2,14.76,10.25,0,4.96-2.84,8.66-6.87,10.47l6.64,12.68h3.52c.57,0,.85,.28,.85,.83v2.7c0,.61-.28,.83-.85,.83h-7.49c-.62,0-.97-.22-1.25-.72l-7.72-14.83h-1.14c-1.36,0-2.27-.05-3.23-.17v11.36h3.58c.57,0,.85,.28,.85,.83v2.7c0,.61-.23,.83-.85,.83h-12.88c-.57,0-.85-.22-.85-.83v-2.7Zm10.16-16.37c.45,.06,.85,.06,1.3,.06,6.02,0,9.71-2.26,9.71-7.06,0-5.24-4.37-6.29-8.97-6.29h-2.04v13.29Z"/>
                    <path class="d"
                          d="M438.97,186.88c-.62,0-.85-.28-.85-.83v-2.7c0-.61,.23-.83,.85-.83h4.66v-28.67h-7.66l.28,4.3c.06,.61-.23,.83-.79,.83h-3.46c-.57,0-.85-.28-.85-.83v-7.88c0-.55,.28-.83,.85-.83h29.69c.57,0,.85,.28,.85,.83v7.88c0,.55-.28,.83-.85,.83h-3.46c-.57,0-.85-.22-.79-.83l.28-4.3h-7.66v28.67h4.71c.57,0,.85,.28,.85,.83v2.7c0,.61-.28,.83-.85,.83h-15.78Z"/>
                </g>
            </g>
        </g>
    </g>
</svg>